<?xml version="1.0" encoding="UTF-8" standalone="no"?>
<!-- Created with Inkscape (http://www.inkscape.org/) -->

<svg
   xmlns:dc="http://purl.org/dc/elements/1.1/"
   xmlns:cc="http://creativecommons.org/ns#"
   xmlns:rdf="http://www.w3.org/1999/02/22-rdf-syntax-ns#"
   xmlns:svg="http://www.w3.org/2000/svg"
   xmlns="http://www.w3.org/2000/svg"
   xmlns:sodipodi="http://sodipodi.sourceforge.net/DTD/sodipodi-0.dtd"
   xmlns:inkscape="http://www.inkscape.org/namespaces/inkscape"
   width="200"
   height="362"
   id="svg2"
   version="1.1"
   inkscape:version="0.91 r13725"
   sodipodi:docname="muscle-19.svg">
  <defs
     id="defs4" />
  <sodipodi:namedview
     id="base"
     pagecolor="#ffffff"
     bordercolor="#666666"
     borderopacity="1.0"
     inkscape:pageopacity="0.0"
     inkscape:pageshadow="2"
     inkscape:zoom="4.2442229"
     inkscape:cx="67.900641"
     inkscape:cy="257.89957"
     inkscape:document-units="px"
     inkscape:current-layer="layer1"
     showgrid="false"
     fit-margin-top="0"
     fit-margin-left="0"
     fit-margin-right="0"
     fit-margin-bottom="0"
     inkscape:window-width="1680"
     inkscape:window-height="969"
     inkscape:window-x="40"
     inkscape:window-y="54"
     inkscape:window-maximized="0" />
  <metadata
     id="metadata7">
    <rdf:RDF>
      <cc:Work
         rdf:about="">
        <dc:format>image/svg+xml</dc:format>
        <dc:type
           rdf:resource="http://purl.org/dc/dcmitype/StillImage" />
        <dc:title />
      </cc:Work>
    </rdf:RDF>
  </metadata>
  <g
     inkscape:label="Ebene 1"
     inkscape:groupmode="layer"
     id="layer1"
     transform="translate(-395.71431,-323.50506)">
    <path
       sodipodi:nodetypes="caazccac"
       inkscape:connector-curvature="0"
       id="path2992-1"
       d="m 474.515,399.29403 c -0.003,1.24769 -3.76718,5.26285 -6.18142,7.37469 -2.42885,2.1246 -5.50326,3.37517 -8.18067,5.17649 -4.76563,3.20623 -12.24186,9.22444 -14.02142,10.01599 -1.77957,0.79154 -2.4354,1.40865 -0.75424,-0.52947 2.3049,-3.13998 5.52107,-7.95764 8.98548,-12.13689 3.60808,-4.33685 7.96561,-7.82628 11.7446,-9.7 3.86794,-1.91784 8.45551,-0.41734 8.40767,-0.20081 z"
       style="opacity:0.52424239;fill:#fc0000;fill-opacity:1;stroke:none" />
    <path
       sodipodi:nodetypes="caazccac"
       inkscape:connector-curvature="0"
       id="path2992-1-8"
       d="m 516.72271,398.24109 c 0.003,1.34531 2.68667,6.12145 4.89989,8.54796 2.07471,2.27465 5.1345,3.41007 7.55779,5.30904 4.18282,3.27779 10.48266,9.6225 12.01717,10.47599 1.5345,0.85346 2.1,1.51888 0.65036,-0.5709 -1.98749,-3.38568 -4.76076,-8.58031 -7.7481,-13.08658 -3.1112,-4.67621 -6.86866,-8.43868 -10.12725,-10.459 -3.33529,-2.06792 -7.29112,-0.45 -7.24986,-0.21651 z"
       style="opacity:0.52424239;fill:#fc0000;fill-opacity:1;stroke:none" />
  </g>
</svg>
