<?xml version="1.0" encoding="UTF-8" standalone="no"?>
<!-- Created with Inkscape (http://www.inkscape.org/) -->

<svg
   xmlns:dc="http://purl.org/dc/elements/1.1/"
   xmlns:cc="http://creativecommons.org/ns#"
   xmlns:rdf="http://www.w3.org/1999/02/22-rdf-syntax-ns#"
   xmlns:svg="http://www.w3.org/2000/svg"
   xmlns="http://www.w3.org/2000/svg"
   xmlns:sodipodi="http://sodipodi.sourceforge.net/DTD/sodipodi-0.dtd"
   xmlns:inkscape="http://www.inkscape.org/namespaces/inkscape"
   width="200"
   height="362"
   id="svg2"
   version="1.1"
   inkscape:version="0.91 r13725"
   sodipodi:docname="muscle-20.svg">
  <defs
     id="defs4" />
  <sodipodi:namedview
     id="base"
     pagecolor="#ffffff"
     bordercolor="#666666"
     borderopacity="1.0"
     inkscape:pageopacity="0.0"
     inkscape:pageshadow="2"
     inkscape:zoom="1.979899"
     inkscape:cx="155.35481"
     inkscape:cy="205.55431"
     inkscape:document-units="px"
     inkscape:current-layer="layer1"
     showgrid="false"
     fit-margin-top="0"
     fit-margin-left="0"
     fit-margin-right="0"
     fit-margin-bottom="0"
     inkscape:window-width="954"
     inkscape:window-height="767"
     inkscape:window-x="714"
     inkscape:window-y="135"
     inkscape:window-maximized="0" />
  <metadata
     id="metadata7">
    <rdf:RDF>
      <cc:Work
         rdf:about="">
        <dc:format>image/svg+xml</dc:format>
        <dc:type
           rdf:resource="http://purl.org/dc/dcmitype/StillImage" />
        <dc:title />
      </cc:Work>
    </rdf:RDF>
  </metadata>
  <g
     inkscape:label="Ebene 1"
     inkscape:groupmode="layer"
     id="layer1"
     transform="translate(-395.71431,-323.50506)">
    <path
       sodipodi:nodetypes="caazccsc"
       inkscape:connector-curvature="0"
       id="path2992"
       d="m 534.77037,454.50416 c -1.81942,2.123 0.24785,8.67221 1.83754,12.78231 1.91618,4.95413 4.5865,10.00511 9.09994,13.84651 3.45855,2.9436 9.78017,5.93015 13.0463,6.4283 3.26612,0.49817 2.9959,-7.7462 1.65602,-10.24412 -1.12881,-4.247 -2.12009,-9.00055 -4.60943,-14.46375 -2.61555,-5.663 -6.07305,-7.89277 -10.68153,-10.04303 -3.0122,-1.40547 -9.08591,-1.87327 -10.34884,1.69378 z"
       style="opacity:0.52424239;fill:#fc0000;fill-opacity:1;stroke:none" />
    <path
       sodipodi:nodetypes="caazccsc"
       inkscape:connector-curvature="0"
       id="path2992-9"
       d="m 453.25338,454.50946 c 1.57549,2.13666 -0.831,8.41029 -2.61786,12.33536 -2.1538,4.73109 -5.02786,9.52503 -9.56263,13.06825 -3.47491,2.71511 -9.66175,5.35348 -12.78639,5.70206 -3.12463,0.3486 -2.30188,-7.64535 -0.86228,-10.01535 1.36017,-4.07707 2.62507,-8.65167 5.35621,-13.85335 2.86432,-5.39046 6.28914,-7.4125 10.79751,-9.30972 2.94678,-1.24006 8.72582,-1.44303 9.67544,2.07275 z"
       style="opacity:0.52424239;fill:#fc0000;fill-opacity:1;stroke:none" />
  </g>
</svg>
